<svg width="61" height="60" viewBox="0 0 61 60" fill="none" xmlns="http://www.w3.org/2000/svg">
<path d="M24.9205 12.1055L25.4493 12.4088L26.0091 12.7284C25.8677 13.1022 25.7258 13.4755 25.584 13.8488L25.5836 13.8497L25.5829 13.8516C25.4407 14.2258 25.2985 14.6 25.1567 14.9747C24.9913 15.1697 24.8387 15.251 24.7278 15.2889C24.723 15.2906 24.718 15.2922 24.7128 15.2939C24.7069 15.2958 24.7007 15.2978 24.6944 15.2998C24.6141 15.3253 24.5008 15.3614 24.3916 15.4605C24.3462 15.502 24.3153 15.5417 24.2953 15.5688L20.6677 21.8111L19.6717 21.2405L23.2993 14.9982C23.3139 14.9675 23.3338 14.9206 23.3466 14.861C23.3785 14.7168 23.353 14.6005 23.3352 14.5192C23.3327 14.5079 23.3304 14.4972 23.3284 14.4872C23.3066 14.3734 23.3011 14.2001 23.3884 13.9617C23.6415 13.6547 23.8946 13.3482 24.1478 13.0416L24.1488 13.0404L24.1544 13.0336C24.4098 12.7244 24.6651 12.4151 24.9205 12.1055Z" fill="#F5512B"/>
<path fill-rule="evenodd" clip-rule="evenodd" d="M17.4872 21.8003L17.9306 21.0365L17.9397 21.0166L21.7563 23.2051L21.302 23.9888C21.0657 24.0827 20.5623 24.3193 20.2024 24.8339C20.0698 25.0235 19.8862 25.2871 19.8608 25.6483C19.8567 25.714 19.8588 25.7662 19.8611 25.8218C19.8639 25.8899 19.8669 25.9632 19.8589 26.0726C19.8389 26.3561 19.7662 26.5836 19.7081 26.7335C19.1635 27.6704 18.6188 28.6077 18.0742 29.545L18.0543 29.5793C17.5096 30.5166 16.965 31.4539 16.4204 32.3908C15.7897 33.3713 14.4903 33.6963 13.4834 33.1401C12.4529 32.5713 12.0531 31.2586 12.6056 30.2022L15.8933 24.545C15.9933 24.4186 16.1568 24.2434 16.3931 24.0845C16.4824 24.024 16.5469 23.9904 16.6067 23.9592C16.6576 23.9327 16.7053 23.9078 16.762 23.8696C17.0637 23.6674 17.2019 23.3767 17.3 23.169C17.569 22.6038 17.5235 22.0513 17.4872 21.8003ZM15.5444 30.6862L17.9052 26.6233C18.067 26.3453 17.9725 25.9877 17.6907 25.827C17.409 25.6663 17.051 25.762 16.8893 26.0401L14.5284 30.1029C14.3667 30.3828 14.463 30.7385 14.7429 30.8992C15.0246 31.06 15.3826 30.9643 15.5444 30.6862Z" fill="#F5512B"/>
<path d="M38.9255 17.333L38.8899 17.2749L38.8898 17.2747C38.7496 17.0459 38.6752 16.9245 38.6365 16.8093C38.5311 16.5005 38.5275 16.0636 38.7565 15.7331C38.8019 15.6663 38.8892 15.558 39.2399 15.3503C39.7586 15.044 40.2122 14.9013 40.3224 14.8666L40.3231 14.8664L40.3325 14.8635C40.761 14.7318 41.3763 14.5427 42.2332 14.48C43.1383 14.4131 43.9216 14.5143 44.5177 14.6479L44.7285 13.9473C44.4032 13.7631 43.9307 13.5175 43.3382 13.2737C42.3913 12.8855 41.0519 12.351 39.3235 12.407C38.0804 12.4467 37.2062 12.7754 36.9827 12.862C36.6883 12.9776 36.4502 13.095 36.2866 13.1835L33.4387 14.879C33.346 14.9512 33.2188 15.0686 33.1352 15.2474C33.0572 15.415 33.0545 15.553 33.0518 15.6845C33.0511 15.7215 33.0504 15.758 33.048 15.7945C33.0207 16.217 32.759 16.6287 32.4555 16.8707C32.1374 17.1235 31.614 17.2716 31.3414 17.0784C31.2916 17.0433 31.2624 17.0054 31.2325 16.9665C31.1946 16.9174 31.1556 16.8667 31.0724 16.8183C30.8816 16.7064 30.6599 16.7262 30.5036 16.7606C30.3364 16.7985 29.8947 16.9249 29.6021 17.3239L29.5986 17.3289C29.5246 17.4317 29.3768 17.6372 29.3768 17.9126C29.3786 18.1419 29.4822 18.3117 29.5276 18.3857C29.616 18.5309 29.7448 18.7455 29.9089 19.0192L29.9092 19.0197L29.9099 19.0208C30.1846 19.4786 30.5581 20.1012 31.007 20.8396C31.1179 20.9083 31.3087 21.004 31.554 21.0094C31.9225 21.0183 32.1784 20.8085 32.5034 20.5419L32.5191 20.5291L32.5219 20.5267C32.8075 20.2915 32.9935 20.1383 33.0007 19.9133C33.0034 19.801 32.9595 19.7327 32.9146 19.6629C32.87 19.5937 32.8244 19.5229 32.8226 19.4059C32.819 19.1302 33.0688 18.9174 33.2975 18.7226L33.2988 18.7216C33.4242 18.615 33.6841 18.4001 34.1021 18.2774C34.222 18.2412 35.1307 17.974 35.676 18.4417C35.8232 18.5681 35.9358 18.7396 36.0485 18.9112C36.1903 19.126 36.2812 19.3211 36.3393 19.4619L39.2072 17.7555C39.1363 17.6562 39.0364 17.5135 38.9255 17.333Z" fill="#F5512B"/>
<path fill-rule="evenodd" clip-rule="evenodd" d="M39.3544 18.5374L48.1235 31.5005C48.1744 31.636 48.2725 31.961 48.1435 32.3077C48.0599 32.537 47.909 32.6869 47.7945 32.8006C47.6746 32.9198 47.571 32.9884 47.3038 33.1564C47.1257 33.2683 46.8967 33.4092 46.6259 33.5681C46.357 33.7306 46.1225 33.866 45.9408 33.9689C45.6663 34.126 45.5555 34.182 45.3937 34.2308C45.2392 34.2777 45.0357 34.3391 44.7903 34.3048C44.4214 34.2542 44.1779 34.0141 44.0815 33.9057L36.7155 20.1083L39.3544 18.5374ZM46.1298 32.0188C46.3133 32.3221 46.7077 32.4214 47.013 32.2391C47.2148 32.1199 47.3256 31.9068 47.3256 31.6901C47.3256 31.5782 47.2966 31.4644 47.2348 31.3615C47.0512 31.0581 46.6568 30.9588 46.3515 31.1412C46.0462 31.3236 45.9462 31.7154 46.1298 32.0188Z" fill="#F5512B"/>
<path d="M32.3283 47.4594C27.5285 48.3568 22.9068 45.2203 22.0017 40.4514C21.0985 35.6826 24.2553 31.0907 29.0552 30.1914C30.2819 29.9621 31.496 29.9982 32.6391 30.2546L33.8586 28.4814C32.2702 28.0173 30.5509 27.9072 28.8116 28.2322C22.9359 29.3319 19.0721 34.9549 20.177 40.7909C21.282 46.6269 26.9433 50.4677 32.8172 49.3698C34.7055 49.0159 36.3848 48.1943 37.7588 47.0495L35.9959 45.8523C34.9472 46.6378 33.7059 47.203 32.3283 47.4594Z" fill="#F5512B"/>
<path d="M33.0217 30.6356C33.2788 30.2632 33.536 29.8908 33.7932 29.5179C34.2766 28.8173 34.7601 28.1167 35.2435 27.4197C35.254 27.4042 35.2646 27.389 35.2751 27.3739L35.2898 27.3528C35.3053 27.3307 35.3207 27.3086 35.3362 27.286C35.3852 27.2427 35.4579 27.1867 35.5524 27.1325C35.6197 27.0946 35.7851 27.0098 36.1049 26.9646C36.2903 26.9375 36.572 26.9195 36.9228 26.9773L37.5207 27.3853L33.1316 33.7432L32.5337 33.3351C32.3538 33.0318 32.2684 32.7627 32.2266 32.5822C32.1539 32.2698 32.1739 32.0856 32.1848 32.0098C32.2011 31.9014 32.2284 31.8147 32.2502 31.7533C32.5029 31.3869 32.7556 31.0209 33.0083 30.655L33.0217 30.6356Z" fill="#F5512B"/>
<path d="M38.9456 43.6421L36.3085 45.5724L38.0732 46.7696L38.9456 43.6421Z" fill="#F5512B"/>
<path fill-rule="evenodd" clip-rule="evenodd" d="M33.8477 4.74392C34.9094 4.88148 35.9506 5.08359 36.9674 5.34613C37.0923 5.233 37.2223 5.10592 37.3535 4.96388L37.3555 4.96172C37.805 4.47554 38.0552 4.20488 38.1623 3.79198C38.3349 3.13832 38.0369 2.54785 37.6243 1.73348C37.3299 1.15023 36.9937 0.678946 36.6847 0.310582C37.6861 0.852293 38.5548 1.34164 39.2709 1.75515C39.8615 2.09642 40.2414 2.32394 40.6685 2.74106C40.8012 2.87107 41.2791 3.3532 41.6844 4.13145C41.8116 4.37523 42.3587 5.46407 42.3496 6.98447C42.349 7.13087 42.3434 7.26942 42.3342 7.39903C43.2801 7.88895 44.1914 8.43576 45.0635 9.0349C45.2206 8.97051 45.3875 8.89449 45.561 8.80462L45.5627 8.80374C46.1523 8.49913 46.4808 8.32938 46.7241 7.97941C47.1112 7.42326 47.0349 6.76779 46.9277 5.86132C46.8514 5.21488 46.6987 4.65692 46.5351 4.20549C47.2912 5.05417 47.9382 5.81076 48.4689 6.44276C48.9069 6.9628 49.1849 7.30769 49.443 7.84399C49.523 8.01192 49.8065 8.62586 49.9192 9.49621C49.9555 9.76887 50.0936 10.9787 49.5611 12.4016C49.5083 12.5402 49.4538 12.6697 49.3993 12.7896C50.1159 13.5659 50.7846 14.3865 51.4009 15.2468C51.5708 15.24 51.7538 15.2257 51.9474 15.2004L51.9621 15.1985C52.6127 15.113 52.9787 15.065 53.325 14.8194C53.8793 14.4276 54.0338 13.7866 54.2446 12.8982C54.3955 12.2644 54.4427 11.6883 54.4446 11.208C54.8626 12.2625 55.2097 13.1925 55.4914 13.9671C55.7222 14.6046 55.8676 15.0235 55.9239 15.6157C55.9421 15.7999 55.9948 16.4735 55.8022 17.3294C55.744 17.5966 55.4587 18.7793 54.4682 19.9386C54.3733 20.0496 54.2796 20.1516 54.189 20.2446C54.5938 21.2138 54.9401 22.2132 55.2235 23.2385C55.385 23.2895 55.5613 23.338 55.7513 23.3803L55.7639 23.383C56.4048 23.524 56.7663 23.6034 57.178 23.4904C57.834 23.3117 58.1994 22.7609 58.7046 21.9971C59.0644 21.4518 59.308 20.9281 59.4752 20.4767C59.5043 21.6089 59.5115 22.602 59.5097 23.4236C59.5024 24.1044 59.4952 24.5468 59.3443 25.1228C59.2971 25.3034 59.1153 25.9534 58.641 26.6919C58.492 26.9231 57.8159 27.9379 56.4873 28.6891C56.3573 28.7628 56.2317 28.8279 56.1124 28.8853C56.1284 29.2549 56.1365 29.6265 56.1365 30C56.1365 30.6898 56.1089 31.3733 56.0548 32.0493C56.1896 32.1527 56.3392 32.2588 56.5037 32.3637L56.5081 32.3665C57.0669 32.7204 57.379 32.9181 57.805 32.9523C58.4828 33.0065 59.0152 32.613 59.7529 32.0678L59.7532 32.0675C60.2803 31.6775 60.6892 31.2676 61 30.901C60.6383 31.9754 60.3021 32.9108 60.0168 33.6818C59.7805 34.3192 59.6224 34.7309 59.2807 35.2203C59.1753 35.3738 58.7809 35.9227 58.0794 36.4554C57.8631 36.6215 56.8781 37.3438 55.3696 37.6002C55.2253 37.6245 55.0877 37.6427 54.9582 37.6561C54.637 38.6702 54.2536 39.6569 53.8125 40.6118C53.9027 40.7533 54.0056 40.9021 54.1229 41.0545L54.1241 41.0562C54.5286 41.5806 54.7539 41.8727 55.1443 42.0495C55.7618 42.331 56.3976 42.1418 57.2764 41.8802L57.2779 41.8797C57.9067 41.6919 58.432 41.4464 58.8518 41.208C58.1412 42.0946 57.5051 42.8584 56.9708 43.4886C56.531 44.0069 56.2383 44.3391 55.7495 44.684C55.5968 44.7923 55.037 45.1751 54.1956 45.437C53.9339 45.52 52.758 45.8649 51.255 45.5923C51.1083 45.5658 50.9705 45.5356 50.8423 45.5035C50.1951 46.3405 49.4967 47.1365 48.7519 47.8867C48.7884 48.0527 48.8348 48.2303 48.8941 48.4164L48.8965 48.4239C49.0949 49.0494 49.2061 49.3999 49.5103 49.6984C49.9943 50.1722 50.6537 50.2111 51.568 50.265L51.5748 50.2654C52.2291 50.3034 52.8089 50.2492 53.285 50.1679C52.3127 50.7602 51.4513 51.2622 50.7334 51.6703C50.1409 52.0079 49.752 52.221 49.174 52.3799C48.9941 52.4287 48.3362 52.5984 47.4547 52.5587C47.1785 52.546 45.9554 52.472 44.6359 51.7046C44.5077 51.6304 44.3892 51.5556 44.2803 51.4823C43.3873 52.049 42.4567 52.5622 41.4929 53.0174C41.4704 53.1834 41.4531 53.3633 41.4445 53.5554L41.4445 53.5569C41.4154 54.2168 41.3992 54.585 41.5826 54.9693C41.8734 55.5796 42.4841 55.8414 43.3274 56.2026C43.9289 56.4608 44.4923 56.6071 44.9685 56.6919C43.8508 56.9177 42.8676 57.0964 42.0534 57.2373C41.3809 57.3528 40.9411 57.4214 40.345 57.3745C40.1578 57.3601 39.4817 57.295 38.6675 56.9592C38.4131 56.8545 37.2899 56.3687 36.3139 55.1986C36.2199 55.086 36.1348 54.9762 36.0582 54.871C35.0302 55.0968 33.979 55.2612 32.9088 55.3603C32.8297 55.5099 32.7506 55.6746 32.6755 55.8541L32.6709 55.865C32.4193 56.4685 32.2777 56.8082 32.3174 57.23C32.3808 57.9006 32.8602 58.351 33.5227 58.9733L33.5315 58.9816C34.0094 59.4294 34.4874 59.758 34.9036 60C33.775 59.8321 32.79 59.6659 31.9757 59.5215C31.3033 59.4023 30.8671 59.3174 30.3219 59.0701C30.1511 58.9924 29.5386 58.7017 28.8879 58.1094C28.6844 57.9234 27.7957 57.0856 27.2813 55.6555C27.231 55.516 27.1884 55.3824 27.1522 55.2561C26.0906 55.1185 25.0493 54.9164 24.0326 54.6539C23.9077 54.767 23.7777 54.8941 23.6465 55.0361L23.6445 55.0383C23.195 55.5244 22.9448 55.7951 22.8377 56.208C22.6651 56.8617 22.9631 57.4521 23.3757 58.2665C23.6701 58.8498 24.0063 59.321 24.3153 59.6894C23.3139 59.1477 22.4452 58.6584 21.7291 58.2449C21.1385 57.9036 20.7586 57.676 20.3315 57.2589C20.1988 57.1289 19.7209 56.6468 19.3156 55.8685C19.1884 55.6248 18.6413 54.5359 18.6504 53.0155C18.651 52.8691 18.6566 52.7306 18.6658 52.601C17.7199 52.1111 16.8086 51.5643 15.9365 50.9651C15.7794 51.0295 15.6125 51.1055 15.439 51.1954L15.4373 51.1963C14.8477 51.5009 14.5192 51.6706 14.2759 52.0206C13.8887 52.5767 13.9651 53.2322 14.0723 54.1387C14.1486 54.7851 14.3013 55.3431 14.4649 55.7945C13.7088 54.9458 13.0618 54.1892 12.5311 53.5572C12.0931 53.0372 11.8151 52.6923 11.557 52.156C11.477 51.9881 11.1935 51.3741 11.0808 50.5038C11.0445 50.2311 10.9064 49.0213 11.4389 47.5984C11.4917 47.4599 11.5462 47.3304 11.6006 47.2105C10.8841 46.4341 10.2153 45.6135 9.59906 44.7532C9.42913 44.76 9.24615 44.7743 9.05259 44.7996L9.03791 44.8015C8.38737 44.8869 8.02133 44.935 7.67498 45.1806C7.12067 45.5724 6.96618 46.2134 6.75536 47.1018C6.60452 47.7356 6.55726 48.3117 6.55545 48.792C6.13744 47.7374 5.79031 46.8075 5.50861 46.0329C5.2778 45.3954 5.1324 44.9765 5.07606 44.3843C5.05789 44.2001 5.00518 43.5265 5.19783 42.6706C5.25599 42.4034 5.54133 41.2207 6.53182 40.0614C6.62665 39.9504 6.72037 39.8485 6.81094 39.7555C6.40615 38.7862 6.05985 37.7868 5.77644 36.7615C5.61494 36.7105 5.43863 36.662 5.24872 36.6197L5.2361 36.6169C4.59517 36.476 4.23372 36.3965 3.82204 36.5096C3.16595 36.6883 2.80065 37.2391 2.29541 38.0029C1.93556 38.5482 1.69202 39.0719 1.52482 39.5233C1.49574 38.3911 1.48847 37.398 1.49029 36.5764C1.49756 35.8956 1.50483 35.4532 1.65567 34.8772C1.70293 34.6966 1.88467 34.0466 2.35902 33.3081C2.50805 33.0769 3.18413 32.0621 4.51266 31.3109C4.64268 31.2372 4.76824 31.1721 4.88749 31.1148C4.87147 30.7452 4.86338 30.3735 4.86338 30C4.86338 29.3107 4.89094 28.6278 4.94502 27.9523C4.81027 27.849 4.6607 27.7429 4.4963 27.6381L4.49192 27.6354C3.93309 27.2814 3.62101 27.0837 3.19503 27.0495C2.51725 26.9953 1.98481 27.3888 1.24714 27.934L1.24675 27.9343C0.7197 28.3243 0.310779 28.7342 0 29.1008C0.35985 28.0282 0.696073 27.0928 0.981409 26.32C1.21767 25.6826 1.37579 25.2709 1.71746 24.7815C1.82288 24.628 2.21726 24.0791 2.91878 23.5464C3.13869 23.3803 4.12373 22.6562 5.63038 22.4016C5.77442 22.3774 5.91178 22.3592 6.04109 22.3458C6.36248 21.331 6.74607 20.3436 7.18743 19.3881C7.09727 19.2466 6.99435 19.0979 6.87713 18.9455L6.87588 18.9438C6.47138 18.4194 6.24608 18.1273 5.85574 17.9505C5.23816 17.669 4.60244 17.8582 3.72358 18.1198L3.72208 18.1203C3.09326 18.3081 2.56802 18.5536 2.14819 18.792C2.85881 17.9054 3.4949 17.1416 4.02923 16.5114C4.46904 15.9931 4.76165 15.6609 5.25054 15.316C5.4032 15.2077 5.96297 14.8248 6.80443 14.563C7.06614 14.48 8.24202 14.1351 9.74502 14.4077C9.89166 14.4342 10.0294 14.4644 10.1576 14.4965C10.8048 13.6594 11.5032 12.8634 12.2481 12.1132C12.2116 11.9472 12.1652 11.7697 12.1059 11.5836L12.1035 11.5761C11.9051 10.9506 11.7939 10.6001 11.4897 10.3016C11.0057 9.82785 10.3463 9.78893 9.43207 9.73497L9.42516 9.73456C8.77088 9.69664 8.19113 9.75081 7.71496 9.83207C8.68728 9.2398 9.54874 8.73781 10.2666 8.32972C10.8591 7.99206 11.248 7.77898 11.826 7.62008C12.0059 7.57132 12.6638 7.40159 13.5453 7.44131C13.8215 7.45395 15.0446 7.52799 16.3641 8.29541C16.4923 8.36961 16.6108 8.44438 16.7196 8.51763C17.6126 7.95097 18.5433 7.43777 19.5072 6.98257C19.5296 6.81654 19.5469 6.63662 19.5555 6.44456L19.5555 6.44309C19.5846 5.78313 19.6008 5.41503 19.4174 5.0307C19.1266 4.42037 18.5159 4.15854 17.6726 3.7974C17.0711 3.53918 16.5077 3.39292 16.0315 3.30805C17.1492 3.08234 18.1324 2.90358 18.9466 2.76273C19.6191 2.64717 20.0589 2.57855 20.655 2.6255C20.8422 2.63994 21.5183 2.70495 22.3325 3.04081C22.5869 3.14554 23.7101 3.63127 24.6861 4.80137C24.7801 4.91399 24.8652 5.02381 24.9418 5.12897C25.9698 4.9032 27.021 4.73875 28.0912 4.63966C28.1703 4.49005 28.2494 4.32535 28.3245 4.1459L28.3291 4.13503C28.5807 3.53151 28.7223 3.19177 28.6826 2.76995C28.6192 2.09938 28.1398 1.64897 27.4773 1.02666L27.4685 1.01842C26.9906 0.570603 26.5126 0.241965 26.0964 0C27.225 0.167931 28.21 0.334056 29.0243 0.478512C29.6967 0.597689 30.1329 0.682557 30.6781 0.929939C30.8489 1.00758 31.4614 1.2983 32.1121 1.89057C32.3156 2.07656 33.2043 2.91441 33.7187 4.34453C33.769 4.48395 33.8116 4.61762 33.8477 4.74392ZM6.86255 30C6.86255 17.0296 17.4454 6.51498 30.5 6.51498C43.5545 6.51498 54.1374 17.0296 54.1374 30C54.1374 42.9704 43.5545 53.485 30.5 53.485C17.4454 53.485 6.86255 42.9704 6.86255 30Z" fill="#F5512B"/>
</svg>
